<?xml version="1.0" encoding="UTF-8"?>
<svg id="Capa_2" xmlns="http://www.w3.org/2000/svg" viewBox="0 0 84.7 98.45">
  <defs>
    <style>
      .cls-1 {
        fill: #80ed99;
      }
    </style>
  </defs>
  <g id="Capa_1-2" data-name="Capa_1">
    <path class="cls-1" d="M46.78,0c1.41.11,2.83.21,4.24.33,7.4.59,14.7,1.72,21.72,4.28,2.89,1.05,5.65,2.36,8.06,4.3,2.57,2.07,3.92,4.63,3.91,8.07-.07,21.49-.07,42.98,0,64.47.01,3.5-1.37,6.1-4.02,8.17-3.4,2.66-7.34,4.17-11.42,5.36-6.91,2.02-14,2.93-21.17,3.31-6.52.34-13.01.12-19.48-.69-6.55-.81-13-2.1-19.09-4.76-2.39-1.04-4.64-2.32-6.55-4.14C.99,86.83,0,84.58.01,81.78.05,60.18.07,38.58,0,16.98c-.01-3.46,1.35-6.04,3.97-8.12,2.94-2.33,6.33-3.76,9.85-4.9,5.9-1.92,11.98-2.93,18.15-3.48,2.04-.18,4.08-.32,6.12-.48,2.9,0,5.8,0,8.7,0ZM43.67,3.93c-6.77,0-12.2.35-17.58,1.18-5.03.78-9.98,1.89-14.68,3.92-2.27.98-4.46,2.1-6.15,3.98-1.7,1.89-1.7,3.76.01,5.62.55.6,1.16,1.19,1.85,1.61,1.42.87,2.86,1.73,4.38,2.39,5.9,2.54,12.16,3.73,18.5,4.41,10.75,1.16,21.46.92,32.09-1.12,4.54-.87,9.02-2.03,13.12-4.25,1.47-.79,2.89-1.79,4.1-2.95,1.94-1.86,1.89-3.88.01-5.83-.75-.78-1.63-1.46-2.54-2.05-2.78-1.79-5.88-2.88-9.04-3.77-8.3-2.34-16.8-3.09-24.07-3.14ZM80.73,67.58c-1.89,1.02-3.65,2.11-5.53,2.96-1.91.86-3.91,1.56-5.91,2.16-6.93,2.06-14.04,2.99-21.24,3.33-10.21.48-20.33-.19-30.27-2.68-4.82-1.21-9.48-2.81-13.54-5.81-.05-.04-.15,0-.25,0,0,5.05-.04,10.08.04,15.11.01.78.42,1.65.89,2.31.54.76,1.25,1.5,2.05,1.97,1.82,1.08,3.68,2.18,5.64,2.96,6.61,2.63,13.58,3.71,20.62,4.27,8.42.68,16.83.46,25.19-.8,5.09-.77,10.09-1.89,14.85-3.93,2.17-.93,4.25-2.02,5.94-3.72,1.03-1.03,1.57-2.24,1.55-3.74-.05-2.87-.01-5.74-.01-8.61v-5.78ZM80.73,45.27c-1.71.96-3.28,1.96-4.95,2.74-1.7.8-3.47,1.46-5.26,2.04-6.97,2.23-14.15,3.23-21.43,3.65-9.93.58-19.78,0-29.5-2.18-5.46-1.23-10.76-2.89-15.37-6.25-.03-.03-.1,0-.24-.01v.87c0,4.37.07,8.75-.03,13.12-.05,2.13.79,3.67,2.37,4.95,1.87,1.52,4,2.56,6.22,3.42,7.35,2.83,15.04,3.93,22.84,4.41,6.56.4,13.12.27,19.65-.49,5.55-.64,11.02-1.67,16.28-3.59,2.55-.93,5-2.05,7.13-3.79,1.55-1.26,2.37-2.79,2.33-4.89-.1-4.37-.03-8.75-.03-13.12v-.88ZM3.97,22.85v1c0,4.35.08,8.7-.03,13.04-.06,2.23.83,3.82,2.5,5.14,2.18,1.71,4.66,2.84,7.24,3.75,7.76,2.74,15.82,3.76,23.98,4.1,6.4.27,12.79.03,19.15-.82,5.29-.71,10.5-1.78,15.48-3.76,2.4-.95,4.7-2.07,6.63-3.84,1.23-1.13,1.86-2.47,1.83-4.2-.06-4.48-.02-8.97-.02-13.45v-.98c-3.79,2.82-7.94,4.39-12.25,5.58-7.25,2.02-14.67,2.9-22.18,3.16-9.55.33-19.01-.41-28.31-2.69-4.34-1.06-8.55-2.49-12.36-4.9-.52-.33-1.03-.69-1.66-1.12Z"/>
  </g>
</svg>