<?xml version="1.0" encoding="UTF-8"?>
<svg id="Capa_2" xmlns="http://www.w3.org/2000/svg" viewBox="0 0 104.84 111.25">
  <defs>
    <style>
      .cls-1 {
        fill: #80ed99;
      }
    </style>
  </defs>
  <g id="Capa_1-2" data-name="Capa_1">
    <g>
      <path class="cls-1" d="M25.35,96.36c-2.59,0-5.1.02-7.6,0-2.26-.02-4.55.17-6.77-.16C4.41,95.2.04,89.96.03,83.29c-.02-9.15,0-18.3,0-27.45,0-4.31-.06-8.62.03-12.93.12-6.13,4.13-11.01,10.09-12.36,1.06-.24,2.17-.33,3.26-.33,21.16-.02,42.32-.02,63.48-.01,7.64,0,13.26,5.61,13.27,13.24.01,13.25.01,26.49,0,39.74,0,7.54-5.58,13.14-13.1,13.16-9.04.03-18.09.02-27.13,0-.86,0-1.53.21-2.21.75-5.53,4.39-11.1,8.74-16.63,13.13-1.18.94-2.4,1.37-3.81.71-1.48-.68-1.88-1.96-1.86-3.5.04-3.28.01-6.57,0-9.86,0-.38-.03-.76-.05-1.22ZM57.08,56.34c0-8.26-6.79-13.92-14.17-12.53-5.67,1.06-9.83,5.97-9.85,11.62,0,2.13,1.45,3.72,3.46,3.79,1.96.06,3.5-1.41,3.66-3.47.03-.42.07-.85.16-1.26.52-2.32,2.81-3.94,5.22-3.71,2.4.23,4.25,2.17,4.35,4.55.09,2.22-.97,3.72-2.87,4.78-3.39,1.89-5.29,4.79-5.55,8.69-.14,2.1,1.27,3.78,3.27,3.97,1.88.18,3.72-1.26,3.82-3.16.09-1.68.91-2.68,2.32-3.48,4.05-2.31,5.99-5.91,6.18-9.78ZM48.62,79.48c.02-1.98-1.54-3.59-3.52-3.62-1.99-.03-3.59,1.52-3.62,3.52-.03,1.98,1.53,3.58,3.52,3.61,1.99.03,3.6-1.53,3.62-3.51Z"/>
      <path class="cls-1" d="M15.6,23.07c1.97-4.35,5.03-6.96,9.45-7.91,1.02-.22,2.1-.25,3.16-.25,8.97-.02,17.95,0,26.92-.04.64,0,1.39-.27,1.89-.66,5.68-4.43,11.33-8.91,16.99-13.36,1.72-1.36,3.95-1.07,4.94.69.34.61.47,1.41.48,2.12.05,3.32.02,6.64.02,9.96,0,.38,0,.76,0,1.28.49,0,.86,0,1.23,0,3.71,0,7.42-.01,11.13,0,7.38.03,12.98,5.55,13,12.91.04,13.46.04,26.92,0,40.38-.02,4.84-2.26,8.5-6.35,11.04-.32.2-.67.34-1.15.59,0-.58,0-.99,0-1.4,0-11.62.04-23.24-.01-34.87-.04-7.88-3.49-13.9-10.29-17.92-3.21-1.9-6.75-2.57-10.46-2.56-19.78.02-39.56,0-59.35,0-.45,0-.91,0-1.59,0Z"/>
    </g>
  </g>
</svg>