<svg width="117" height="117" xmlns="http://www.w3.org/2000/svg" xmlns:xlink="http://www.w3.org/1999/xlink" xml:space="preserve" overflow="hidden"><defs><clipPath id="clip0"><rect x="80" y="133" width="117" height="117"/></clipPath></defs><g clip-path="url(#clip0)" transform="translate(-80 -133)"><path d="M106.632 187.946C106.632 190.662 106.632 193.287 106.632 195.912 106.632 196.291 106.642 196.661 106.632 197.04 106.572 197.988 106.123 198.677 105.215 199.026 104.316 199.376 103.638 199.056 102.999 198.408 99.8144 195.203 96.5902 192.049 93.4359 188.815 92.7371 188.106 92.0384 187.847 91.0701 187.867 88.2452 187.916 85.4303 187.886 82.6053 187.886 80.7087 187.886 80.0399 187.198 80.0399 185.281 80.0399 174.371 80.0399 163.46 80.0399 152.55 80.0399 150.643 80.7187 149.965 82.6153 149.965 92.5475 149.965 102.48 149.965 112.412 149.965L113.909 149.965C113.909 149.505 113.909 149.106 113.909 148.707 113.909 144.345 113.909 139.982 113.909 135.62 113.909 133.724 114.588 133.035 116.504 133.035 134.941 133.035 153.368 133.035 171.805 133.035 173.752 133.035 174.411 133.724 174.411 135.71 174.411 141.879 174.411 148.048 174.411 154.217L174.411 155.604 175.658 155.604C181.827 155.604 187.996 155.604 194.165 155.604 196.401 155.604 197.01 156.193 197.01 158.379 197.01 169.18 197.01 179.971 197.01 190.771 197.01 192.897 196.381 193.526 194.255 193.526 191.32 193.526 188.385 193.496 185.451 193.556 184.922 193.566 184.283 193.836 183.904 194.205 180.639 197.379 177.425 200.594 174.211 203.828 173.432 204.616 172.634 205.116 171.516 204.606 170.508 204.137 170.318 203.269 170.318 202.271 170.338 199.416 170.318 196.561 170.318 193.536L168.97 193.536C158.968 193.536 148.956 193.536 138.954 193.536 137.127 193.536 136.439 192.858 136.429 191.031 136.429 190.023 136.429 189.014 136.429 187.956L106.632 187.956ZM84.1725 154.057 84.1725 183.824C86.7679 183.824 89.2933 183.904 91.8088 183.794 93.4858 183.724 94.7336 184.203 95.8815 185.451 97.7581 187.507 99.7845 189.414 101.761 191.38 101.981 191.6 102.23 191.789 102.609 192.109 102.609 190.152 102.609 188.386 102.609 186.629 102.609 184.433 103.218 183.814 105.414 183.814 115.307 183.814 125.199 183.814 135.101 183.814L136.379 183.814 136.379 154.047 84.1725 154.047ZM170.278 137.187 118.022 137.187 118.022 149.965C118.481 149.965 118.89 149.965 119.289 149.965 125.458 149.965 131.627 149.965 137.796 149.965 139.853 149.965 140.521 150.623 140.521 152.65 140.521 156.972 140.521 161.304 140.521 165.626L140.521 166.784C140.741 166.844 140.811 166.884 140.881 166.884 143.666 166.884 146.451 166.884 149.236 166.904 151.112 166.904 151.811 167.623 151.821 169.509 151.821 171.336 151.821 173.153 151.821 175.199 152.26 174.79 152.54 174.55 152.789 174.301 154.866 172.235 156.972 170.188 159.008 168.072 159.827 167.224 160.725 166.864 161.903 166.884 164.678 166.934 167.443 166.904 170.268 166.904L170.268 137.187ZM174.391 159.727C174.391 162.722 174.391 165.577 174.391 168.441 174.391 170.218 173.642 170.957 171.835 170.957 168.831 170.957 165.816 170.927 162.811 170.987 162.282 170.997 161.643 171.266 161.274 171.636 158.05 174.79 154.866 177.994 151.691 181.198 150.933 181.967 150.174 182.566 149.026 182.047 147.908 181.548 147.738 180.61 147.748 179.521 147.778 177.036 147.748 174.56 147.748 172.075 147.748 171.716 147.748 171.356 147.748 171.007L140.591 171.007 140.591 189.454 141.999 189.454C151.781 189.454 161.554 189.454 171.336 189.454 173.832 189.454 174.381 190.003 174.381 192.498 174.381 194.205 174.381 195.902 174.381 197.609 174.48 197.649 174.58 197.689 174.67 197.729 176.397 195.962 178.094 194.155 179.871 192.428 183.564 188.825 181.807 189.534 187.088 189.464 188.994 189.434 190.901 189.464 192.818 189.464L192.818 159.727 174.391 159.727Z" fill="#3CD56D"/><path d="M183.993 230.141C186.149 231.418 188.425 232.476 190.352 233.974 194.734 237.398 196.82 242.059 196.95 247.599 196.99 249.127 196.211 249.905 194.704 249.955 194.365 249.965 194.025 249.955 193.686 249.955 156.892 249.955 120.108 249.955 83.314 249.955 80.4292 249.955 79.7405 249.266 80.0799 246.372 80.9982 238.625 85.1907 233.405 92.4377 230.6 92.6473 230.52 92.8469 230.45 93.2662 230.31 89.1536 226.946 87.4866 222.684 88.2552 217.593 88.7842 214.079 90.5311 211.175 93.396 209.009 98.7563 204.956 106.692 205.724 111.124 210.656 115.207 215.197 116.934 224.111 109.487 230.34 113.849 231.788 117.293 234.373 119.928 238.196 122.574 234.433 125.987 231.788 130.449 230.33 126.716 227.326 124.959 223.533 125.249 218.911 125.468 215.317 126.966 212.233 129.611 209.777 134.692 205.066 143.027 205.315 147.898 210.276 152.44 214.918 154.107 224.111 146.62 230.34 150.983 231.778 154.416 234.403 157.072 238.206 159.717 234.403 163.151 231.798 167.503 230.35 160.126 224.301 161.574 214.748 166.485 210.027 171.546 205.165 179.861 205.225 184.872 210.097 189.364 214.449 191.45 223.942 184.013 230.151ZM155.594 245.882C154.985 241.67 152.999 238.376 149.495 236.21 142.777 232.067 135.76 231.947 128.772 235.411 124.55 237.507 122.104 241.091 121.376 245.882L155.594 245.882ZM117.123 245.872C118.152 243.786 117.742 241.88 116.375 240.272 115.077 238.745 113.719 237.138 112.072 236.06 107.71 233.185 102.829 232.506 97.7082 233.385 93.1763 234.163 89.2933 236.08 86.5482 239.903 85.2805 241.67 84.4919 243.616 84.2723 245.872L117.113 245.872ZM192.718 245.892C192.298 242.618 190.941 239.953 188.625 237.827 184.323 233.884 179.122 232.656 173.472 233.155 168.751 233.574 164.568 235.291 161.464 239.065 159.827 241.061 158.509 243.167 159.877 245.892L192.718 245.892ZM110.515 219.859C110.535 214.469 106.562 210.456 101.232 210.466 96.2708 210.466 92.1182 214.648 92.1282 219.63 92.1282 224.78 96.141 228.913 101.162 228.963 106.383 229.013 110.505 225.01 110.515 219.859ZM166.395 219.58C166.365 224.71 170.418 228.943 175.379 228.963 180.649 228.983 184.722 225.06 184.772 219.909 184.822 214.509 180.869 210.446 175.549 210.456 170.567 210.456 166.425 214.589 166.395 219.57ZM147.619 219.639C147.469 214.159 143.496 210.316 138.136 210.466 133.115 210.616 129.122 214.878 129.252 219.959 129.381 225.07 133.634 229.103 138.745 228.953 143.815 228.813 147.758 224.67 147.629 219.63Z" fill="#3CD56D"/></g></svg>