<svg width="85" height="98" xmlns="http://www.w3.org/2000/svg" xmlns:xlink="http://www.w3.org/1999/xlink" xml:space="preserve" overflow="hidden"><g transform="translate(-352 -139)"><path d="M398.91 139C400.313 139.109 401.727 139.209 403.13 139.328 410.497 139.916 417.763 141.041 424.751 143.589 427.628 144.634 430.375 145.938 432.774 147.869 435.332 149.93 436.676 152.478 436.666 155.902 436.597 177.294 436.597 198.686 436.666 220.078 436.676 223.562 435.303 226.15 432.665 228.21 429.28 230.858 425.358 232.361 421.297 233.546 414.419 235.557 407.361 236.462 400.224 236.841 393.734 237.179 387.273 236.96 380.833 236.154 374.313 235.348 367.892 234.063 361.83 231.416 359.451 230.38 357.211 229.106 355.31 227.295 353.329 225.433 352.344 223.193 352.354 220.406 352.393 198.905 352.413 177.404 352.344 155.902 352.334 152.458 353.687 149.89 356.295 147.82 359.222 145.5 362.596 144.077 366.1 142.942 371.973 141.031 378.026 140.025 384.167 139.478 386.198 139.299 388.229 139.159 390.259 139 393.146 139 396.033 139 398.92 139ZM395.814 142.912C389.075 142.912 383.67 143.26 378.314 144.087 373.307 144.863 368.38 145.968 363.701 147.989 361.442 148.964 359.262 150.079 357.58 151.951 355.887 153.832 355.887 155.693 357.589 157.545 358.137 158.142 358.744 158.729 359.431 159.147 360.845 160.014 362.278 160.87 363.791 161.527 369.664 164.055 375.895 165.24 382.206 165.916 392.907 167.071 403.568 166.832 414.15 164.802 418.669 163.936 423.129 162.781 427.21 160.571 428.673 159.785 430.087 158.789 431.291 157.634 433.222 155.783 433.172 153.772 431.301 151.831 430.554 151.055 429.678 150.378 428.773 149.79 426.005 148.009 422.919 146.924 419.774 146.038 411.512 143.708 403.051 142.962 395.814 142.912ZM432.705 206.271C430.823 207.286 429.071 208.371 427.2 209.218 425.299 210.074 423.308 210.77 421.317 211.368 414.419 213.418 407.341 214.344 400.174 214.682 390.011 215.16 379.937 214.493 370.042 212.015 365.244 210.81 360.606 209.218 356.564 206.231 356.514 206.191 356.415 206.231 356.315 206.231 356.315 211.258 356.276 216.265 356.355 221.272 356.365 222.049 356.773 222.915 357.241 223.572 357.779 224.328 358.485 225.065 359.282 225.533 361.093 226.608 362.945 227.703 364.896 228.479 371.476 231.097 378.414 232.172 385.422 232.73 393.803 233.406 402.175 233.188 410.497 231.933 415.563 231.167 420.54 230.052 425.279 228.021 427.439 227.095 429.509 226.01 431.192 224.318 432.217 223.293 432.754 222.088 432.734 220.595 432.685 217.738 432.724 214.882 432.724 212.025L432.724 206.271ZM432.705 184.063C431.002 185.019 429.44 186.014 427.777 186.791 426.085 187.587 424.323 188.244 422.541 188.821 415.603 191.041 408.456 192.036 401.209 192.455 391.325 193.032 381.52 192.455 371.844 190.285 366.409 189.06 361.133 187.408 356.544 184.063 356.514 184.033 356.445 184.063 356.305 184.053L356.305 184.919C356.305 189.269 356.375 193.629 356.276 197.979 356.226 200.099 357.062 201.632 358.635 202.907 360.496 204.42 362.616 205.455 364.826 206.311 372.143 209.128 379.798 210.223 387.562 210.701 394.092 211.099 400.622 210.97 407.122 210.213 412.647 209.576 418.092 208.551 423.328 206.639 425.866 205.714 428.305 204.599 430.425 202.867 431.968 201.612 432.784 200.089 432.744 197.999 432.645 193.649 432.715 189.289 432.715 184.939L432.715 184.063ZM356.295 161.746 356.295 162.741C356.295 167.071 356.375 171.401 356.266 175.721 356.206 177.941 357.092 179.524 358.754 180.838 360.924 182.54 363.393 183.665 365.961 184.571 373.686 187.298 381.709 188.314 389.831 188.652 396.202 188.921 402.563 188.682 408.894 187.836 414.16 187.129 419.346 186.064 424.303 184.093 426.692 183.147 428.982 182.032 430.903 180.27 432.127 179.146 432.754 177.812 432.724 176.09 432.665 171.63 432.705 167.161 432.705 162.701L432.705 161.726C428.932 164.533 424.801 166.096 420.511 167.28 413.294 169.291 405.908 170.167 398.432 170.426 388.926 170.754 379.509 170.018 370.251 167.748 365.931 166.693 361.74 165.269 357.948 162.87 357.43 162.542 356.923 162.184 356.295 161.756Z" fill="#3CD56D"/></g></svg>