<svg width="105" height="111" xmlns="http://www.w3.org/2000/svg" xmlns:xlink="http://www.w3.org/1999/xlink" xml:space="preserve" overflow="hidden"><defs><clipPath id="clip0"><rect x="222" y="237" width="105" height="111"/></clipPath></defs><g clip-path="url(#clip0)" transform="translate(-222 -237)"><path d="M247.491 333.143C244.907 333.143 242.402 333.163 239.908 333.143 237.653 333.124 235.368 333.313 233.153 332.984 226.598 331.986 222.238 326.758 222.228 320.103 222.208 310.973 222.228 301.844 222.228 292.715 222.228 288.414 222.168 284.114 222.258 279.814 222.377 273.697 226.378 268.828 232.325 267.481 233.383 267.242 234.49 267.152 235.578 267.152 256.69 267.132 277.803 267.132 298.915 267.142 306.538 267.142 312.145 272.74 312.155 280.352 312.165 293.573 312.165 306.783 312.155 320.003 312.155 327.526 306.588 333.114 299.085 333.133 290.065 333.163 281.035 333.153 272.016 333.133 271.158 333.133 270.489 333.343 269.811 333.882 264.293 338.262 258.736 342.602 253.218 346.982 252.041 347.92 250.823 348.349 249.417 347.691 247.94 347.012 247.541 345.735 247.561 344.199 247.601 340.926 247.571 337.643 247.561 334.361 247.561 333.982 247.531 333.602 247.511 333.143ZM279.15 293.213C279.15 284.972 272.375 279.325 265.011 280.712 259.354 281.769 255.203 286.668 255.184 292.305 255.184 294.431 256.63 296.017 258.636 296.087 260.591 296.147 262.128 294.68 262.288 292.625 262.317 292.206 262.357 291.777 262.447 291.368 262.966 289.053 265.251 287.436 267.655 287.666 270.05 287.895 271.896 289.831 271.996 292.206 272.085 294.421 271.028 295.917 269.132 296.975 265.75 298.861 263.854 301.754 263.595 305.645 263.455 307.741 264.862 309.417 266.857 309.606 268.733 309.786 270.569 308.349 270.669 306.454 270.758 304.777 271.577 303.78 272.983 302.981 277.024 300.677 278.96 297.085 279.15 293.223ZM270.709 316.301C270.728 314.326 269.172 312.719 267.196 312.69 265.211 312.66 263.615 314.206 263.585 316.202 263.555 318.177 265.111 319.774 267.097 319.803 269.082 319.833 270.689 318.277 270.709 316.301Z" fill="#3CD56D"/><path d="M237.763 260.018C239.728 255.678 242.781 253.074 247.191 252.126 248.209 251.906 249.287 251.876 250.344 251.876 259.294 251.857 268.254 251.876 277.204 251.837 277.842 251.837 278.591 251.567 279.09 251.178 284.757 246.758 290.394 242.288 296.042 237.848 297.758 236.491 299.983 236.78 300.97 238.537 301.31 239.145 301.439 239.943 301.449 240.652 301.499 243.964 301.469 247.277 301.469 250.589 301.469 250.969 301.469 251.348 301.469 251.867 301.958 251.867 302.327 251.867 302.697 251.867 306.398 251.867 310.1 251.857 313.801 251.867 321.165 251.896 326.752 257.404 326.772 264.747 326.812 278.177 326.812 291.607 326.772 305.037 326.752 309.866 324.517 313.518 320.437 316.052 320.117 316.251 319.768 316.391 319.289 316.641 319.289 316.062 319.289 315.653 319.289 315.244 319.289 303.65 319.329 292.056 319.279 280.452 319.239 272.59 315.797 266.583 309.012 262.572 305.809 260.677 302.277 260.008 298.576 260.018 278.84 260.038 259.105 260.018 239.359 260.018 238.91 260.018 238.451 260.018 237.773 260.018Z" fill="#3CD56D"/></g></svg>