<?xml version="1.0" encoding="UTF-8"?>
<svg id="Capa_2" xmlns="http://www.w3.org/2000/svg" viewBox="0 0 117.21 117.14">
  <defs>
    <style>
      .cls-1 {
        fill: #80ed99;
      }
    </style>
  </defs>
  <g id="Capa_1-2" data-name="Capa_1">
    <path class="cls-1" d="M26.68,55.01c0,2.72,0,5.35,0,7.98,0,.38.01.75,0,1.13-.06.95-.51,1.64-1.42,1.99-.9.35-1.58.03-2.22-.62-3.19-3.21-6.42-6.37-9.58-9.61-.7-.71-1.4-.97-2.37-.95-2.83.05-5.65.02-8.48.02-1.9,0-2.57-.69-2.57-2.61,0-10.93,0-21.86,0-32.79,0-1.91.68-2.59,2.58-2.59,9.95,0,19.9,0,29.85,0h1.5c0-.46,0-.86,0-1.26,0-4.37,0-8.74,0-13.11,0-1.9.68-2.59,2.6-2.59,18.47,0,36.93,0,55.4,0,1.95,0,2.61.69,2.61,2.68,0,6.18,0,12.36,0,18.54v1.39h1.25c6.18,0,12.36,0,18.54,0,2.24,0,2.85.59,2.85,2.78,0,10.82,0,21.63,0,32.45,0,2.13-.63,2.76-2.76,2.76-2.94,0-5.88-.03-8.82.03-.53.01-1.17.28-1.55.65-3.27,3.18-6.49,6.4-9.71,9.64-.78.79-1.58,1.29-2.7.78-1.01-.47-1.2-1.34-1.2-2.34.02-2.86,0-5.72,0-8.75h-1.35c-10.02,0-20.05,0-30.07,0-1.83,0-2.52-.68-2.53-2.51,0-1.01,0-2.02,0-3.08h-29.85ZM4.18,21.06v29.82c2.6,0,5.13.08,7.65-.03,1.68-.07,2.93.41,4.08,1.66,1.88,2.06,3.91,3.97,5.89,5.94.22.22.47.41.85.73,0-1.96,0-3.73,0-5.49,0-2.2.61-2.82,2.81-2.82,9.91,0,19.82,0,29.74,0h1.28v-29.82H4.18ZM90.44,4.16h-52.35v12.8c.46,0,.87,0,1.27,0,6.18,0,12.36,0,18.54,0,2.06,0,2.73.66,2.73,2.69,0,4.33,0,8.67,0,13v1.16c.22.06.29.1.36.1,2.79,0,5.58,0,8.37.02,1.88,0,2.58.72,2.59,2.61,0,1.83,0,3.65,0,5.7.44-.41.72-.65.97-.9,2.08-2.07,4.19-4.12,6.23-6.24.82-.85,1.72-1.21,2.9-1.19,2.78.05,5.55.02,8.38.02V4.16ZM94.56,26.74c0,3,0,5.86,0,8.73,0,1.78-.75,2.52-2.56,2.52-3.01,0-6.03-.03-9.04.03-.53.01-1.17.28-1.54.65-3.23,3.16-6.42,6.37-9.6,9.58-.76.77-1.52,1.37-2.67.85-1.12-.5-1.29-1.44-1.28-2.53.03-2.49,0-4.97,0-7.46,0-.36,0-.72,0-1.07h-7.17v18.48h1.41c9.8,0,19.59,0,29.39,0,2.5,0,3.05.55,3.05,3.05,0,1.71,0,3.41,0,5.12.1.04.2.08.29.12,1.73-1.77,3.43-3.58,5.21-5.31,3.7-3.61,1.94-2.9,7.23-2.97,1.91-.03,3.82,0,5.74,0v-29.79h-18.46Z"/>
    <path class="cls-1" d="M104.18,97.28c2.16,1.28,4.44,2.34,6.37,3.84,4.39,3.43,6.48,8.1,6.61,13.65.04,1.53-.74,2.31-2.25,2.36-.34.01-.68,0-1.02,0-36.86,0-73.71,0-110.57,0-2.89,0-3.58-.69-3.24-3.59.92-7.76,5.12-12.99,12.38-15.8.21-.08.41-.15.83-.29-4.12-3.37-5.79-7.64-5.02-12.74.53-3.52,2.28-6.43,5.15-8.6,5.37-4.06,13.32-3.29,17.76,1.65,4.09,4.55,5.82,13.48-1.64,19.72,4.37,1.45,7.82,4.04,10.46,7.87,2.65-3.77,6.07-6.42,10.54-7.88-3.74-3.01-5.5-6.81-5.21-11.44.22-3.6,1.72-6.69,4.37-9.15,5.09-4.72,13.44-4.47,18.32.5,4.55,4.65,6.22,13.86-1.28,20.1,4.37,1.44,7.81,4.07,10.47,7.88,2.65-3.81,6.09-6.42,10.45-7.87-7.39-6.06-5.94-15.63-1.02-20.36,5.07-4.87,13.4-4.81,18.42.07,4.5,4.36,6.59,13.87-.86,20.09ZM75.73,113.05c-.61-4.22-2.6-7.52-6.11-9.69-6.73-4.15-13.76-4.27-20.76-.8-4.23,2.1-6.68,5.69-7.41,10.49h34.28ZM37.19,113.04c1.03-2.09.62-4-.75-5.61-1.3-1.53-2.66-3.14-4.31-4.22-4.37-2.88-9.26-3.56-14.39-2.68-4.54.78-8.43,2.7-11.18,6.53-1.27,1.77-2.06,3.72-2.28,5.98h32.9ZM112.92,113.06c-.42-3.28-1.78-5.95-4.1-8.08-4.31-3.95-9.52-5.18-15.18-4.68-4.73.42-8.92,2.14-12.03,5.92-1.64,2-2.96,4.11-1.59,6.84h32.9ZM30.57,86.98c.02-5.4-3.96-9.42-9.3-9.41-4.97,0-9.13,4.19-9.12,9.18,0,5.16,4.02,9.3,9.05,9.35,5.23.05,9.36-3.96,9.37-9.12ZM86.55,86.7c-.03,5.14,4.03,9.38,9,9.4,5.28.02,9.36-3.91,9.41-9.07.05-5.41-3.91-9.48-9.24-9.47-4.99,0-9.14,4.14-9.17,9.13ZM67.74,86.76c-.15-5.49-4.13-9.34-9.5-9.19-5.03.15-9.03,4.42-8.9,9.51.13,5.12,4.39,9.16,9.51,9.01,5.08-.14,9.03-4.29,8.9-9.34Z"/>
  </g>
</svg>